<?xml version="1.0" encoding="UTF-8" standalone="no"?>
<!-- Created with Inkscape (http://www.inkscape.org/) -->

<svg
   width="864.99951"
   height="448.99985"
   viewBox="0 0 864.99951 448.99985"
   version="1.1"
   id="svg1"
   xml:space="preserve"
   inkscape:version="1.3.2 (091e20e, 2023-11-25)"
   sodipodi:docname="logo.svg"
   xmlns:inkscape="http://www.inkscape.org/namespaces/inkscape"
   xmlns:sodipodi="http://sodipodi.sourceforge.net/DTD/sodipodi-0.dtd"
   xmlns="http://www.w3.org/2000/svg"
   xmlns:svg="http://www.w3.org/2000/svg"><sodipodi:namedview
     id="namedview1"
     pagecolor="#505050"
     bordercolor="#eeeeee"
     borderopacity="1"
     inkscape:showpageshadow="0"
     inkscape:pageopacity="0"
     inkscape:pagecheckerboard="0"
     inkscape:deskcolor="#505050"
     inkscape:document-units="mm"
     inkscape:zoom="0.913856"
     inkscape:cx="425.12168"
     inkscape:cy="188.76059"
     inkscape:window-width="1512"
     inkscape:window-height="840"
     inkscape:window-x="0"
     inkscape:window-y="38"
     inkscape:window-maximized="0"
     inkscape:current-layer="layer1" /><defs
     id="defs1" /><g
     inkscape:label="measure"
     inkscape:groupmode="layer"
     id="layer1"
     style="display:inline"
     transform="translate(-25.267727,-76.067705)"><path
       style="fill:#8899bb;fill-opacity:1;stroke:#000000;stroke-width:0.999999;stroke-linejoin:round;stroke-dasharray:none;stroke-opacity:1"
       d="M 89.767724,396.56773 V 364.56776 H 57.767727 v -63.99995 h 31.999997 v 31.99997 h 32.000006 v 63.99995 z"
       id="path1" /><path
       style="fill:#9944cc;fill-opacity:1;stroke:#000000;stroke-width:0.999999;stroke-linejoin:round;stroke-dasharray:none;stroke-opacity:1"
       d="m 89.767724,332.56778 v -63.99999 h 63.999996 v 63.99999 z"
       id="path2" /><path
       style="fill:#c93c3c;fill-opacity:1;stroke:#000000;stroke-width:0.999999;stroke-linejoin:round;stroke-dasharray:none;stroke-opacity:1"
       d="m 185.76772,172.56772 v 32.00001 h -32 v 32.00001 h 96.00001 v -32.00001 h -32 v -32.00001 z"
       id="path5" /><path
       style="fill:#225588;fill-opacity:1;stroke:#000000;stroke-width:0.999999;stroke-linejoin:round;stroke-dasharray:none;stroke-opacity:1"
       d="M 57.767727,396.56773 H 25.767726 v 95.99992 H 89.767724 V 460.56764 H 57.767727 Z"
       id="path4" /><path
       style="fill:#225588;fill-opacity:1;stroke:#000000;stroke-width:0.999999;stroke-linejoin:round;stroke-dasharray:none;stroke-opacity:1"
       d="M 89.767724,460.56764 V 364.56776 H 25.767726 v 31.99997 h 32.000001 v 63.99991 z"
       id="path6" /><path
       style="fill:#c93c3c;fill-opacity:1;stroke:#000000;stroke-width:0.999999;stroke-linejoin:round;stroke-dasharray:none;stroke-opacity:1"
       d="m 217.76773,236.56774 -96,4e-5 v 32.00001 h 31.99999 v 32.00002 h 32 v -32.00002 l 32.00001,-3e-5 z"
       id="path7" /><path
       style="fill:#9944cc;fill-opacity:1;stroke:#000000;stroke-width:0.999999;stroke-linejoin:round;stroke-dasharray:none;stroke-opacity:1"
       d="m 217.76773,204.56773 v -64.00002 h 63.99997 l 3e-5,64.00002 z"
       id="path8" /><path
       style="fill:#9944cc;fill-opacity:1;stroke:#000000;stroke-width:0.999999;stroke-linejoin:round;stroke-dasharray:none;stroke-opacity:1"
       d="m 281.76773,172.56772 -3e-5,-64.00002 h 63.99997 l 4e-5,64.00002 z"
       id="path9" /><path
       style="fill:#8899bb;fill-opacity:1;stroke:#000000;stroke-width:0.999999;stroke-linejoin:round;stroke-dasharray:none;stroke-opacity:1"
       d="m 345.76767,172.56772 4e-5,-64.00002 h 31.99997 V 76.567704 h 31.99998 v 64.000006 h -31.99998 v 32.00001 z"
       id="path10" /><path
       style="fill:#9944cc;fill-opacity:1;stroke:#000000;stroke-width:0.999999;stroke-linejoin:round;stroke-dasharray:none;stroke-opacity:1"
       d="m 409.76769,76.567704 h 63.99992 v 64.000006 h -63.99992 z"
       id="path11" /><path
       style="fill:#8899bb;fill-opacity:1;stroke:#000000;stroke-width:0.999999;stroke-linejoin:round;stroke-dasharray:none;stroke-opacity:1"
       d="m 473.76761,76.567704 h 31.99997 V 108.5677 h 31.99998 v 64.00002 h -31.99998 v -32.00001 h -31.99997 z"
       id="path12" /><path
       style="fill:#9944cc;fill-opacity:1;stroke:#000000;stroke-width:0.999999;stroke-linejoin:round;stroke-dasharray:none;stroke-opacity:1"
       d="m 537.76756,108.5677 h 63.99994 v 64.00002 h -63.99994 z"
       id="path13" /><path
       style="fill:#9944cc;fill-opacity:1;stroke:#000000;stroke-width:0.999999;stroke-linejoin:round;stroke-dasharray:none;stroke-opacity:1"
       d="m 601.7675,140.56771 h 63.99992 v 64.00002 H 601.7675 Z"
       id="path14" /><path
       style="fill:#c93c3c;fill-opacity:1;stroke:#000000;stroke-width:0.999999;stroke-linejoin:round;stroke-dasharray:none;stroke-opacity:1"
       d="m 665.76742,172.56772 h 31.99997 v 32.00001 h 31.99998 v 32.00001 h -95.99993 v -32.00001 h 31.99998 z"
       id="path15" /><path
       style="fill:#8899bb;fill-opacity:1;stroke:#000000;stroke-width:0.999999;stroke-linejoin:round;stroke-dasharray:none;stroke-opacity:1"
       d="m 729.76737,204.56773 h 63.99995 v -32.00001 h 31.99997 v -32.00001 h -63.99995 v 32.00001 h -31.99997 z"
       id="path16" /><path
       style="fill:#8899bb;fill-opacity:1;stroke:#000000;stroke-width:0.999999;stroke-linejoin:round;stroke-dasharray:none;stroke-opacity:1"
       d="m 793.76732,140.56771 h 63.99994 V 108.5677 h 31.99998 V 76.567704 H 825.76729 V 108.5677 h -31.99997 z"
       id="path17" /><path
       style="fill:#225588;fill-opacity:1;stroke:#000000;stroke-width:0.999999;stroke-linejoin:round;stroke-dasharray:none;stroke-opacity:1"
       d="m 729.76737,204.56773 h 31.99997 v 64.00006 l -95.99992,-3e-5 v -32.00002 h 63.99995 z"
       id="path18" /><path
       style="fill:#225588;fill-opacity:1;stroke:#000000;stroke-width:0.999999;stroke-linejoin:round;stroke-dasharray:none;stroke-opacity:1"
       d="m 729.76737,268.56779 h -95.99993 v 63.99992 h 31.99998 v -31.9999 h 63.99995 z"
       id="path19" /><path
       style="fill:#8899bb;fill-opacity:1;stroke:#000000;stroke-width:0.999999;stroke-linejoin:round;stroke-dasharray:none;stroke-opacity:1"
       d="m 633.76744,300.56781 -31.99994,-8e-5 v 31.99998 h -31.99997 v 63.99994 h 31.99997 v -31.99997 h 31.99994 z"
       id="path20" /><path
       style="fill:#8899bb;fill-opacity:1;stroke:#000000;stroke-width:0.999999;stroke-linejoin:round;stroke-dasharray:none;stroke-opacity:1"
       d="m 569.76753,364.56768 h -31.99997 v 31.99997 h -31.99998 v 63.99995 h 31.99998 v -31.99997 h 31.99997 z"
       id="path21" /><path
       style="fill:#8899bb;fill-opacity:1;stroke:#000000;stroke-width:0.999999;stroke-linejoin:round;stroke-dasharray:none;stroke-opacity:1"
       d="m 505.76758,428.56763 h -31.99997 v 31.99997 h -31.99998 v 63.99995 h 31.99998 v -31.99997 h 31.99997 z"
       id="path22" /><path
       style="fill:#9944cc;fill-opacity:1;stroke:#000000;stroke-width:0.999999;stroke-linejoin:round;stroke-dasharray:none;stroke-opacity:1"
       d="m 729.76737,268.56779 v 63.99999 h 63.99995 v -63.99999 z"
       id="path23" /><path
       style="fill:#8899bb;fill-opacity:1;stroke:#000000;stroke-width:0.999999;stroke-linejoin:round;stroke-dasharray:none;stroke-opacity:1"
       d="m 793.76732,300.56781 h 31.99997 v 63.99995 h -31.99997 v 31.99997 h -31.99998 v -63.99995 h 31.99998 z"
       id="path24" /><path
       style="fill:#225588;fill-opacity:1;stroke:#000000;stroke-width:0.999999;stroke-linejoin:round;stroke-dasharray:none;stroke-opacity:1"
       d="m 793.76732,364.56776 h 63.99994 v 95.99988 h -31.99997 v -63.99991 h -31.99997 z"
       id="path25" /><path
       style="fill:#225588;fill-opacity:1;stroke:#000000;stroke-width:0.999999;stroke-linejoin:round;stroke-dasharray:none;stroke-opacity:1"
       d="m 793.76732,396.56773 v 95.99992 h 63.99994 v -32.00001 h -31.99997 v -63.99991 z"
       id="path26" /></g></svg>
